<mxfile host="app.diagrams.net" modified="2024-03-08T19:58:30.392Z" agent="Mozilla/5.0 (X11; Ubuntu; Linux x86_64; rv:123.0) Gecko/20100101 Firefox/123.0" version="24.0.2" etag="ubSoreCxSdIcTEByyCA5" type="github">
  <diagram name="Page-1" id="F29JSm4uKKtBMsYpbNtS">
    <mxGraphModel>
      <root>
        <mxCell id="0" />
        <mxCell id="1" parent="0" />
      </root>
    </mxGraphModel>
  </diagram>
</mxfile>
